<?xml version="1.0" standalone="no"?>
<svg xmlns="http://www.w3.org/2000/svg" viewBox="0 0 111.235 29" width="111.235" height="29"><g fill="#235e95" color="#235e95" transform="translate(0, 0) scale(0.58)"><svg width="44.0" height="50.0" x="0.0" y="0.0" viewBox="0 0 44 50"><path fill="currentColor" fill-rule="nonzero" d="M21.57 37.18c.12.12.27.18.43.18.16 0 .31-.06.43-.18L37.21 22.4c.24-.24.24-.62 0-.86L22.43 6.75a.622.622 0 0 0-.86 0L6.79 21.54c-.24.24-.24.62 0 .86l14.78 14.78zm.43-7.71l-7.5-7.5 7.5-7.5 7.5 7.5-7.5 7.5zm-2.35-7.93l1.93-1.93c.23-.23.63-.23.86 0l1.93 1.93c.24.24.24.62 0 .86l-1.93 1.93c-.12.12-.27.18-.43.18-.16 0-.32-.07-.43-.18l-1.93-1.93a.604.604 0 0 1 0-.86zm23.99 6.06c.12.11.18.27.17.43 0 .16-.07.32-.18.43L22.42 49.67c-.12.12-.27.18-.43.18-.16 0-.32-.07-.43-.18L.35 28.46a.598.598 0 0 1-.18-.43c0-.16.07-.32.18-.43l2.6-2.6-2.6-2.6a.604.604 0 0 1 0-.86L21.57.32c.23-.23.63-.23.86 0l21.21 21.22c.12.12.18.27.18.43 0 .16-.07.32-.18.43l-2.6 2.6 2.6 2.6zM22 1.61L1.64 21.97l11.48 11.47L22 42.32l20.36-20.35L22 1.61z"></path></svg></g><line x1="37.52" y1="1" x2="37.52" y2="28" stroke="#0e89aa" stroke-linecap="round"></line><path fill="#0e89aa" fill-rule="nonzero" d="M0 1.22L14.18 1.22L14.18 4.99L12.21 4.99L12.04 3.04L8.25 3.04L8.25 16.48L10.16 16.80L10.16 18.28L4.03 18.28L4.03 16.80L5.94 16.48L5.94 3.04L2.14 3.04L1.98 4.99L0 4.99L0 1.22ZM16.69 7.42L14.78 7.09L14.78 5.60L18.75 5.60L18.97 7.44Q19.51 6.47 20.30 5.92Q21.09 5.37 22.11 5.37L22.11 5.37Q22.38 5.37 22.67 5.41Q22.96 5.45 23.11 5.50L23.11 5.50L22.80 7.64L21.49 7.57Q20.58 7.57 19.96 8.00Q19.34 8.43 19.00 9.20L19.00 9.20L19.00 16.48L20.91 16.80L20.91 18.28L14.78 18.28L14.78 16.80L16.69 16.48L16.69 7.42ZM36 18.28L32.98 18.28Q32.87 17.77 32.81 17.36Q32.75 16.95 32.73 16.54L32.73 16.54Q32.06 17.39 31.06 17.96Q30.06 18.53 28.92 18.53L28.92 18.53Q26.94 18.53 25.91 17.56Q24.88 16.59 24.88 14.84L24.88 14.84Q24.88 13.03 26.34 12.05Q27.80 11.07 30.34 11.07L30.34 11.07L32.72 11.07L32.72 9.60Q32.72 8.48 32.02 7.83Q31.31 7.18 30.06 7.18L30.06 7.18Q29.19 7.18 28.53 7.41Q27.87 7.63 27.46 8.02L27.46 8.02L27.21 9.35L25.43 9.35L25.43 6.89Q26.30 6.20 27.53 5.78Q28.76 5.37 30.20 5.37L30.20 5.37Q32.36 5.37 33.69 6.47Q35.03 7.57 35.03 9.62L35.03 9.62L35.03 15.73Q35.03 15.97 35.03 16.21Q35.04 16.44 35.06 16.68L35.06 16.68L36 16.80L36 18.28ZM29.26 16.59L29.26 16.59Q30.41 16.59 31.36 16.04Q32.31 15.49 32.72 14.72L32.72 14.72L32.72 12.63L30.26 12.63Q28.84 12.63 28.01 13.29Q27.19 13.95 27.19 14.88L27.19 14.88Q27.19 15.71 27.70 16.15Q28.22 16.59 29.26 16.59ZM43.62 16.72L43.62 16.72Q44.77 16.72 45.64 16.01Q46.51 15.30 46.51 14.27L46.51 14.27L48.59 14.27L48.61 14.34Q48.67 15.98 47.15 17.26Q45.63 18.53 43.62 18.53L43.62 18.53Q40.85 18.53 39.39 16.72Q37.93 14.92 37.93 12.19L37.93 12.19L37.93 11.70Q37.93 8.99 39.40 7.18Q40.86 5.37 43.62 5.37L43.62 5.37Q45.14 5.37 46.35 5.87Q47.57 6.38 48.36 7.25L48.36 7.25L48.47 10.07L46.63 10.07L46.13 8.07Q45.71 7.68 45.07 7.43Q44.43 7.18 43.62 7.18L43.62 7.18Q41.80 7.18 41.02 8.49Q40.24 9.80 40.24 11.70L40.24 11.70L40.24 12.19Q40.24 14.13 41.02 15.43Q41.79 16.72 43.62 16.72ZM52.45 1.82L50.54 1.49L50.54 0L54.76 0L54.76 10.59L56.24 10.59L58.95 7.24L57.79 7.09L57.79 5.60L63.09 5.60L63.09 7.09L61.55 7.39L58.21 11.38L62.27 16.52L63.71 16.80L63.71 18.28L58.45 18.28L58.45 16.80L59.64 16.65L56.27 12.43L54.76 12.43L54.76 16.48L56.67 16.80L56.67 18.28L50.54 18.28L50.54 16.80L52.45 16.48L52.45 1.82Z" transform="translate(47.52, 5.36)"></path></svg>